<svg width="734" height="633" viewBox="0 0 734 633" fill="none" xmlns="http://www.w3.org/2000/svg">
<g filter="url(#filter0_b_540_83)">
<path opacity="0.7" d="M157.333 550.998C111.262 537.546 91.0251 487.061 86.6657 463.5C76.4195 408.125 116.125 376.1 110.627 346.387C98.6283 281.542 -26.4155 234.852 26.6882 139.352C79.7918 43.8525 364.599 146.205 404.217 138.875C461.487 128.278 546.269 19.1246 592 71.5C637.731 123.875 555.332 140.248 581.686 187.055C608.04 233.863 663.336 198.022 683.937 251.482C704.538 304.941 620.849 323.22 626.012 363.704C631.175 404.189 703.638 410.803 709.735 448.787C715.832 486.771 681.712 523.815 605.627 537.893C529.543 551.971 427.659 487.011 382.755 493.457C296.908 505.781 251.981 578.635 157.333 550.998Z" fill="#64B357"/>
<path d="M567.763 181.115L554.821 184.43L558.206 197.647L551.376 208.787L562.861 215.822L566.105 228.489L579.048 225.174L590.533 232.209L597.497 220.449L610.44 217.134L607.195 204.467L613.609 192.848L602.541 186.293L599.155 173.075L586.213 176.39L574.523 169.7L567.763 181.115Z" fill="#FFB619"/>
<path d="M561.121 172.245L542.338 177.056L547.259 196.271L537.351 212.459L554.026 222.692L558.742 241.106L577.525 236.295L594.2 246.528L604.302 229.437L623.085 224.627L618.369 206.212L627.672 189.326L611.602 179.791L606.681 160.576L587.898 165.387L570.926 155.657L561.121 172.245Z" stroke="#FFB619" stroke-width="3.66278"/>
<path d="M136.631 436.739L127.679 439.031L130.021 448.173L125.297 455.877L133.24 460.743L135.484 469.504L144.435 467.211L152.379 472.077L157.196 463.943L166.147 461.651L163.903 452.89L168.339 444.853L160.684 440.32L158.342 431.178L149.391 433.471L141.306 428.844L136.631 436.739Z" fill="#FFB619"/>
<path d="M132.037 430.604L119.045 433.931L122.449 447.221L115.596 458.417L127.129 465.495L130.391 478.231L143.382 474.903L154.915 481.981L161.902 470.16L174.893 466.833L171.631 454.097L178.066 442.418L166.951 435.823L163.548 422.533L150.556 425.861L138.818 419.131L132.037 430.604Z" stroke="#FFB619" stroke-width="3.37645"/>
<path d="M116.52 231.296L125.787 248.289L109.712 260.03M116.52 231.296L99.7776 227.329M116.52 231.296L129.257 217.76L112.396 213.766M109.712 260.03L114.91 278.317L98.0494 274.322M109.712 260.03L92.8072 256.025M98.0494 274.322L92.8072 256.025M98.0494 274.322L88.6052 290.895L69.3636 281.07M99.7776 227.329L83.0355 223.363L78.428 207.724M99.7776 227.329L88.0277 239.343L92.8072 256.025M99.7776 227.329L112.396 213.766M92.8072 256.025L76.2277 252.097L64.8687 264.956M112.396 213.766L111.21 194.423L91.5494 193.778M91.5494 193.778L78.428 207.724M91.5494 193.778L86.0235 175.665L73.0262 189.39M91.5494 193.778L78.4959 207.74M91.5494 193.778L86.0914 175.681L73.0262 189.39M73.0262 189.39L78.428 207.724M73.0262 189.39L55.1657 181.145L45.4278 197.9M73.0262 189.39L78.4959 207.74M69.3636 281.07L64.8687 264.956M69.3636 281.07L57.4511 294.299L52.2653 277.019L64.8687 264.956M33.8777 211.716L17.972 222.746L27.0699 240.451M33.8777 211.716L50.6199 215.683M33.8777 211.716L28.5669 193.905L45.4278 197.9M27.0699 240.451L14.22 254.462L31.0808 258.456M27.0699 240.451L43.9747 244.456M31.0808 258.456L43.9747 244.456M31.0808 258.456L32.0856 277.505L53.6902 277.356M50.6199 215.683L67.362 219.649L78.4959 207.74M50.6199 215.683L55.7308 231.691L43.9747 244.456M50.6199 215.683L45.4278 197.9M43.9747 244.456L60.5542 248.384L64.9366 264.972M53.6902 277.356L64.9366 264.972M53.6902 277.356L58.401 294.524L70.7885 281.407L64.9366 264.972" stroke="#FFB619" stroke-width="5.49417"/>
<path d="M678.607 407.934L685.728 412.535L681.998 420.416M678.607 407.934L671.334 409.909M678.607 407.934L680.677 400.06L673.353 402.05M681.998 420.416L687.823 426.366L680.499 428.356M681.998 420.416L674.654 422.411M680.499 428.356L674.654 422.411M680.499 428.356L680.331 436.709L670.871 436.953M671.334 409.909L664.061 411.885L659.017 406.831M671.334 409.909L669.325 416.991L674.654 422.411M671.334 409.909L673.353 402.05M674.654 422.411L667.452 424.367L665.771 431.692M673.353 402.05L668.851 394.854L661.149 398.719M661.149 398.719L659.017 406.831M661.149 398.719L655.234 392.904L653.103 400.905M661.149 398.719L659.046 406.823M661.149 398.719L655.263 392.896L653.103 400.905M653.103 400.905L659.017 406.831M653.103 400.905L644.505 401.468L644.262 409.953M653.103 400.905L659.046 406.823M670.871 436.953L665.771 431.692M670.871 436.953L669.054 444.536L663.444 438.971L665.771 431.692M642.707 417.686L638.893 425.258L646.098 430.168M642.707 417.686L649.98 415.71M642.707 417.686L636.938 411.942L644.262 409.953M646.098 430.168L644.084 438.248L651.408 436.258M646.098 430.168L653.442 428.174M651.408 436.258L653.442 428.174M651.408 436.258L655.779 443.379L664.063 438.803M649.98 415.71L657.253 413.735L659.046 406.823M649.98 415.71L655.296 420.802L653.442 428.174M649.98 415.71L644.262 409.953M653.442 428.174L660.644 426.217L665.8 431.684M664.063 438.803L665.8 431.684M664.063 438.803L669.467 444.424L671.49 436.785L665.8 431.684" stroke="#FFB619" stroke-width="3.66278"/>
<path d="M64.2778 465.698C61.8871 493.691 73.0892 554.214 137.024 572.358C113 591 26 532 64.2778 465.698Z" fill="#93C885"/>
<path d="M715.323 263.344C713.581 241.691 697.329 196.962 646.261 191.268C658.613 177.137 733 202 715.323 263.344Z" fill="#FFB619"/>
</g>
<defs>
<filter id="filter0_b_540_83" x="5.03076" y="53.3547" width="716.994" height="526.493" filterUnits="userSpaceOnUse" color-interpolation-filters="sRGB">
<feFlood flood-opacity="0" result="BackgroundImageFix"/>
<feGaussianBlur in="BackgroundImageFix" stdDeviation="2"/>
<feComposite in2="SourceAlpha" operator="in" result="effect1_backgroundBlur_540_83"/>
<feBlend mode="normal" in="SourceGraphic" in2="effect1_backgroundBlur_540_83" result="shape"/>
</filter>
</defs>
</svg>
