<svg width="752" height="633" viewBox="0 0 752 633" fill="none" xmlns="http://www.w3.org/2000/svg">
<g filter="url(#filter0_f_540_83)">
<path opacity="0.7" d="M175.333 550.998C129.262 537.546 109.025 487.061 104.666 463.5C94.4195 408.125 134.125 376.1 128.627 346.387C116.628 281.542 -8.41551 234.852 44.6882 139.352C97.7918 43.8525 382.599 146.205 422.217 138.875C479.487 128.278 564.269 19.1246 610 71.5C655.731 123.875 573.332 140.248 599.686 187.055C626.04 233.863 681.336 198.022 701.937 251.482C722.538 304.941 638.849 323.22 644.012 363.704C649.175 404.189 721.638 410.803 727.735 448.787C733.832 486.771 699.712 523.815 623.627 537.893C547.543 551.971 445.659 487.011 400.755 493.457C314.908 505.781 269.981 578.635 175.333 550.998Z" fill="#64B357"/>
<path d="M175.333 550.998C129.262 537.546 109.025 487.061 104.666 463.5C94.4195 408.125 134.125 376.1 128.627 346.387C116.628 281.542 -8.41551 234.852 44.6882 139.352C97.7918 43.8525 382.599 146.205 422.217 138.875C479.487 128.278 564.269 19.1246 610 71.5C655.731 123.875 573.332 140.248 599.686 187.055C626.04 233.863 681.336 198.022 701.937 251.482C722.538 304.941 638.849 323.22 644.012 363.704C649.175 404.189 721.638 410.803 727.735 448.787C733.832 486.771 699.712 523.815 623.627 537.893C547.543 551.971 445.659 487.011 400.755 493.457C314.908 505.781 269.981 578.635 175.333 550.998Z" fill="#64B357"/>
<path d="M656.998 388.025L644.055 391.339L647.44 404.557L640.61 415.696L652.095 422.731L655.339 435.398L668.282 432.083L679.767 439.119L686.731 427.358L699.674 424.043L696.429 411.377L702.843 399.757L691.775 393.202L688.389 379.985L675.447 383.299L663.757 376.61L656.998 388.025Z" fill="#FFB619"/>
<path d="M650.355 379.154L631.572 383.965L636.493 403.18L626.586 419.368L643.26 429.601L647.976 448.016L666.76 443.205L683.434 453.438L693.536 436.347L712.32 431.536L707.603 413.122L716.906 396.236L700.837 386.701L695.915 367.486L677.132 372.297L660.16 362.566L650.355 379.154Z" stroke="#FFB619" stroke-width="3.66278"/>
<path d="M59.7646 211.688L41.347 216.405L46.1644 235.214L36.4445 251.066L52.7883 261.077L57.405 279.103L75.8225 274.386L92.1663 284.397L102.077 267.661L120.495 262.944L115.878 244.919L125.005 228.384L109.254 219.056L104.437 200.246L86.0193 204.963L69.3841 195.444L59.7646 211.688Z" fill="#FFB619"/>
<path d="M50.3124 199.065L23.5825 205.911L30.5857 233.255L16.4868 256.291L40.2152 270.853L46.9266 297.058L73.6565 290.212L97.3849 304.774L111.761 280.453L138.491 273.607L131.779 247.402L145.018 223.372L122.15 209.804L115.147 182.46L88.4167 189.306L64.2654 175.459L50.3124 199.065Z" stroke="#FFB619" stroke-width="3.66278"/>
<path d="M632.85 175.671L648.051 185.493L640.089 202.317M632.85 175.671L617.326 179.889M632.85 175.671L637.27 158.864L621.635 163.111M640.089 202.317L652.525 215.018L636.89 219.266M640.089 202.317L624.413 206.575M636.89 219.266L624.413 206.575M636.89 219.266L636.532 237.097L616.337 237.618M617.326 179.889L601.801 184.106L591.032 173.317M617.326 179.889L613.037 195.005L624.413 206.575M617.326 179.889L621.635 163.111M624.413 206.575L609.039 210.752L605.449 226.388M621.635 163.111L612.024 147.751L595.584 156.001M595.584 156.001L591.032 173.317M595.584 156.001L582.957 143.588L578.408 160.667M595.584 156.001L591.095 173.299M595.584 156.001L583.02 143.571L578.408 160.667M578.408 160.667L591.032 173.317M578.408 160.667L560.054 161.869L559.536 179.981M578.408 160.667L591.095 173.299M616.337 237.618L605.449 226.388M616.337 237.618L612.458 253.805L600.482 241.925L605.449 226.388M556.217 196.489L548.075 212.652L563.455 223.135M556.217 196.489L571.742 192.272M556.217 196.489L543.9 184.228L559.536 179.981M563.455 223.135L559.155 240.382L574.79 236.135M563.455 223.135L579.131 218.876M574.79 236.135L579.131 218.876M574.79 236.135L584.121 251.335L601.803 241.566M571.742 192.272L587.267 188.054L591.095 173.299M571.742 192.272L583.089 203.141L579.131 218.876M571.742 192.272L559.536 179.981M579.131 218.876L594.505 214.7L605.512 226.37M601.803 241.566L605.512 226.37M601.803 241.566L613.339 253.566L617.658 237.259L605.512 226.37" stroke="#FFB619" stroke-width="7.81882"/>
<path d="M194.869 432.237L205.723 439.25L200.037 451.263M194.869 432.237L183.783 435.248M194.869 432.237L198.025 420.236L186.861 423.269M200.037 451.263L208.917 460.333L197.753 463.365M200.037 451.263L188.844 454.304M197.753 463.365L188.844 454.304M197.753 463.365L197.497 476.098L183.077 476.47M183.783 435.248L172.698 438.26L165.009 430.556M183.783 435.248L180.721 446.042L188.844 454.304M183.783 435.248L186.861 423.269M188.844 454.304L177.866 457.286L175.303 468.451M186.861 423.269L179.998 412.301L168.259 418.191M168.259 418.191L165.009 430.556M168.259 418.191L159.242 409.328L155.994 421.523M168.259 418.191L165.054 430.543M168.259 418.191L159.287 409.316L155.994 421.523M155.994 421.523L165.009 430.556M155.994 421.523L142.889 422.382L142.518 435.314M155.994 421.523L165.054 430.543M183.077 476.47L175.303 468.451M183.077 476.47L180.308 488.028L171.756 479.545L175.303 468.451M140.149 447.102L134.335 458.643L145.317 466.128M140.149 447.102L151.234 444.091M140.149 447.102L131.354 438.347L142.518 435.314M145.317 466.128L142.247 478.444L153.411 475.411M145.317 466.128L156.51 463.088M153.411 475.411L156.51 463.088M153.411 475.411L160.074 486.265L172.7 479.289M151.234 444.091L162.32 441.079L165.054 430.543M151.234 444.091L159.336 451.851L156.51 463.088M151.234 444.091L142.518 435.314M156.51 463.088L167.488 460.105L175.348 468.439M172.7 479.289L175.348 468.439M172.7 479.289L180.937 487.857L184.021 476.213L175.348 468.439" stroke="#FFB619" stroke-width="5.58302"/>
<path d="M82.2778 465.698C79.8871 493.691 91.0892 554.214 155.024 572.358C131 591 44 532 82.2778 465.698Z" fill="#93C885"/>
<path d="M733.323 263.344C731.581 241.691 715.329 196.962 664.261 191.267C676.613 177.137 751 202 733.323 263.344Z" fill="#FFB619"/>
</g>
<defs>
<filter id="filter0_f_540_83" x="11.9698" y="55.3547" width="726.054" height="522.493" filterUnits="userSpaceOnUse" color-interpolation-filters="sRGB">
<feFlood flood-opacity="0" result="BackgroundImageFix"/>
<feBlend mode="normal" in="SourceGraphic" in2="BackgroundImageFix" result="shape"/>
<feGaussianBlur stdDeviation="1" result="effect1_foregroundBlur_540_83"/>
</filter>
</defs>
</svg>
