<svg width="380" height="56" viewBox="0 0 459 68" fill="none" xmlns="http://www.w3.org/2000/svg">
<path d="M59.277 48.8763H7.52388C6.69741 48.8763 6.1823 47.98 6.59838 47.2659L32.651 2.55401C33.0656 1.84241 34.0947 1.84545 34.5051 2.55948L60.2057 47.2714C60.6161 47.9855 60.1007 48.8763 59.277 48.8763Z" fill="#64B357"/>
<path d="M0.864034 57.8576L4.22353 51.6985C4.41123 51.3544 4.7719 51.1403 5.16388 51.1403H66.3463C67.1915 51.1403 67.7037 52.0734 67.25 52.7865L63.3305 58.9455C63.1339 59.2545 62.7931 59.4416 62.4269 59.4416H1.80439C0.991325 59.4416 0.474699 58.5713 0.864034 57.8576Z" fill="#64B357"/>
<path d="M13.9614 66.2946V62.3995C13.9614 61.8079 14.441 61.3284 15.0326 61.3284H51.7557C52.3473 61.3284 52.8269 61.8079 52.8269 62.3995V66.2946C52.8269 66.8862 52.3473 67.3657 51.7557 67.3657H15.0326C14.441 67.3657 13.9614 66.8862 13.9614 66.2946Z" fill="#64B357"/>
<path d="M32.79 43.7958L20.3538 38.5595C19.6477 38.2622 18.8669 38.7806 18.8669 39.5467V56.8606C18.8669 57.283 19.1151 57.6659 19.5007 57.8384L32.7682 63.7739C33.0466 63.8984 33.3648 63.8984 33.6431 63.7739L46.9106 57.8384C47.2962 57.6659 47.5444 57.283 47.5444 56.8606V39.5467C47.5444 38.7806 46.7636 38.2622 46.0576 38.5595L33.6213 43.7958C33.3555 43.9077 33.0558 43.9077 32.79 43.7958Z" fill="#FFB619"/>
<path d="M106.161 46.6603H99.51L108.149 21.0567H116.387L125.026 46.6603H118.375L112.362 27.5076H112.162L106.161 46.6603ZM105.273 36.5839H119.175V41.2845H105.273V36.5839ZM134.824 46.6603V21.0567H141.012V41.6346H151.663V46.6603H134.824ZM161.908 46.6603V21.0567H168.096V31.3331H178.185V21.0567H184.361V46.6603H178.185V36.3713H168.096V46.6603H161.908ZM201.472 21.0567V46.6603H195.284V21.0567H201.472ZM212.398 46.6603V21.0567H218.587V31.8832H218.924L227.388 21.0567H234.676L225.6 32.4833L234.839 46.6603H227.438L221.062 36.5964L218.587 39.7218V46.6603H212.398ZM249.697 46.6603H243.046L251.684 21.0567H259.923L268.562 46.6603H261.911L255.897 27.5076H255.697L249.697 46.6603ZM248.809 36.5839H262.711V41.2845H248.809V36.5839ZM278.359 21.0567H286.023L292.524 36.9089H292.824L299.325 21.0567H306.988V46.6603H300.962V30.9331H300.75L294.599 46.4978H290.749L284.598 30.8456H284.385V46.6603H278.359V21.0567ZM332.494 21.0567H340.157L346.658 36.9089H346.958L353.459 21.0567H361.123V46.6603H355.097V30.9331H354.884L348.734 46.4978H344.883L338.732 30.8456H338.52V46.6603H332.494V21.0567ZM377.562 46.6603H370.911L379.55 21.0567H387.788L396.427 46.6603H389.776L383.763 27.5076H383.563L377.562 46.6603ZM376.674 36.5839H390.576V41.2845H376.674V36.5839ZM406.225 46.6603V21.0567H416.801C418.718 21.0567 420.373 21.4026 421.764 22.0943C423.165 22.7778 424.244 23.7612 425.002 25.0448C425.761 26.3199 426.14 27.8326 426.14 29.5829C426.14 31.3581 425.752 32.8667 424.977 34.1085C424.202 35.342 423.102 36.2838 421.677 36.9339C420.252 37.5757 418.564 37.8966 416.614 37.8966H409.925V33.0209H415.463C416.397 33.0209 417.176 32.9 417.801 32.6583C418.435 32.4083 418.914 32.0332 419.239 31.5332C419.564 31.0248 419.727 30.3747 419.727 29.5829C419.727 28.7911 419.564 28.1369 419.239 27.6201C418.914 27.095 418.435 26.7033 417.801 26.445C417.168 26.1783 416.389 26.0449 415.463 26.0449H412.413V46.6603H406.225ZM420.639 34.9586L427.015 46.6603H420.264L414.013 34.9586H420.639ZM435.738 26.0824V21.0567H457.378V26.0824H449.614V46.6603H443.514V26.0824H435.738Z" fill="#64B357"/>
</svg>
