<svg width="225" height="203" viewBox="0 0 225 203" fill="none" xmlns="http://www.w3.org/2000/svg">
<g opacity="0.4">
<path d="M0.5 172.97V47.1401C0.5 45.8148 1.76567 44.856 3.04149 45.2148L31.0415 53.0898C31.9041 53.3324 32.5 54.1191 32.5 55.0151V99.4634C32.5 100.37 33.1092 101.162 33.9847 101.396L52.4847 106.329C53.7544 106.668 55 105.711 55 104.397V62.1049C55 60.7903 56.2465 59.8332 57.5165 60.1727L104.017 72.6034C104.891 72.8373 105.5 73.6299 105.5 74.5356V200.385C105.5 201.703 104.248 202.66 102.976 202.315L1.9761 174.901C1.10482 174.664 0.5 173.873 0.5 172.97Z" fill="#64B357"/>
<path d="M112.469 62.8518L76.8064 52.8994C74.8639 52.3574 74.8538 49.607 76.7922 49.0507L180.926 19.1648C181.3 19.0573 181.698 19.0615 182.07 19.177L218.441 30.4645C220.352 31.0576 220.305 33.7787 218.374 34.3044L113.532 62.8551C113.184 62.9499 112.816 62.9488 112.469 62.8518Z" fill="#64B357"/>
<path d="M37.9723 42.3534L9.29309 34.387C7.35119 33.8476 7.33616 31.0995 9.27204 30.5389L112.435 0.663639C112.804 0.556809 113.196 0.558452 113.564 0.668371L144.758 9.98625C146.688 10.5628 146.652 13.3086 144.707 13.8335L39.0288 42.3573C38.6826 42.4507 38.3177 42.4494 37.9723 42.3534Z" fill="#64B357"/>
<path d="M121 200.378V74.5257C121 73.6247 121.602 72.8349 122.471 72.5968L222.471 45.1929C223.744 44.8441 225 45.8021 225 47.1218V172.974C225 173.875 224.398 174.665 223.529 174.903L123.529 202.307C122.256 202.656 121 201.698 121 200.378Z" fill="#64B357"/>
</g>
</svg>
